<svg height="512pt" viewBox="0 -22 512 511" width="512pt" xmlns="http://www.w3.org/2000/svg"><path d="m177.925781 468.238281c-28.6875 0-56.085937-5.378906-81.652343-16.058593-25.976563-10.851563-49.25-27-67.3125-46.699219l-28.710938-31.324219 42.003906 6.417969c39.332032 6.007812 64.554688 1.996093 79.859375-3.421875-12.273437-5.804688-27.261719-14.140625-42.449219-25.632813-47.402343-35.878906-74.179687-85.519531-77.433593-143.550781l-2.230469-39.816406 17.980469 18.398437c-2.914063-19.21875-3.421875-43.738281 2.480469-72.898437l9.367187-46.269532 11.292969 25.683594c2.621094-19.886718 9.203125-42.59375 24.171875-64.289062l19.511719-28.277344 7.417968 33.542969c8.292969 37.5 21.761719 68.65625 40.035156 92.601562 14.320313 18.765625 31.667969 33.21875 51.558594 42.960938 18.582032 9.101562 36.109375 12.421875 48.304688 13.554687-.601563-4.796875-.902344-9.640625-.902344-14.511718 0-64.023438 52.089844-116.113282 116.113281-116.113282 26.648438 0 52.683594 9.257813 73.304688 26.070313 18.003906 14.671875 31.242187 34.523437 37.894531 56.578125l53.46875 16.6875-48.558594 39.507812v6.449219c0 71.007813-28.167968 137.492187-79.320312 187.207031-49.472656 48.085938-116.757813 77.421875-189.460938 82.605469-5.625.398437-11.207031.597656-16.734375.597656zm-92.175781-54.8125c24.382812 14.765625 59.777344 27.710938 106.78125 24.359375 65.675781-4.679687 126.308594-31.035156 170.730469-74.210937 22.140625-21.523438 39.441406-46.390625 51.414062-73.910157 12.5-28.734374 18.835938-59.632812 18.835938-91.835937v-20.683594l16.359375-13.308593-16.488282-5.148438-1.855468-8.503906c-4.121094-18.898438-14.707032-36.082032-29.800782-48.382813-15.296874-12.46875-34.617187-19.335937-54.394531-19.335937-47.523437 0-86.183593 38.660156-86.183593 86.179687 0 8.632813 1.273437 17.160157 3.785156 25.335938l5.308594 17.296875-17.984376 1.972656c-1.542968.167969-38.242187 3.910156-79.996093-15.988281-24.429688-11.644531-45.644531-28.96875-63.054688-51.496094-14.320312-18.527344-26.035156-40.59375-35.019531-65.898437-6.515625 23.863281-4.664062 45.980468-3.597656 58.730468l2.695312 32.226563-26.308594-18.800781c-.359374-.257813-.714843-.519532-1.074218-.785157-1.699219 42.449219 12.289062 66.257813 13.359375 68.007813l18.304687 27.722656-33.054687-4.882812c-1.292969-.1875-3.746094-.691407-7.199219-2.0625 9.066406 34.695312 29.292969 64.074218 60.417969 87.632812 30.824219 23.332031 60.671875 31.730469 60.96875 31.8125l20.539062 5.664062-12.292969 17.398438c-2.503906 3.542969-22.574218 29.097656-81.195312 30.894531zm0 0"/></svg>